<svg width="721" height="735" viewBox="0 0 721 735" fill="none" xmlns="http://www.w3.org/2000/svg">
<path fill-rule="evenodd" clip-rule="evenodd" d="M721 361C721 360.833 721 360.667 721 360.5C721 161.401 559.599 0 360.5 0C161.401 0 0 161.401 0 360.5C0 360.667 0.000113137 360.833 0.000339339 361H721Z" fill="#1F497D"/>
<rect x="167.993" y="548.681" width="385.014" height="4.326" fill="white" stroke="white" stroke-width="1.442"/>
<circle cx="360.5" cy="360.5" r="271.096" fill="white" stroke="white" stroke-width="5.768"/>
<path d="M288.5 140H310C310 140 292.5 235.2 267 312.2C241.5 389.2 198 476 198 476H144C144 476 199 408.1 236 312.2C273 216.3 288.5 140 288.5 140Z" fill="#1F497D"/>
<path d="M215 450.8L231 417.2V455L215 470.4V450.8Z" fill="#1F497D"/>
<path d="M243 387.1L257 352.8V427.7L243 441.7V387.1Z" fill="#1F497D"/>
<path d="M271 311.5L284 271.6V398.889L271 413V311.5Z" fill="#1F497D"/>
<path d="M300 207.9L310 165.2V373.1L300 382.2V207.9Z" fill="#1F497D"/>
<path d="M431.5 140H410C410 140 427.5 235.2 453 312.2C478.5 389.2 522 476 522 476H576C576 476 521 408.1 484 312.2C447 216.3 431.5 140 431.5 140Z" fill="#1F497D"/>
<path d="M505 450.8L489 417.2V455L505 470.4V450.8Z" fill="#1F497D"/>
<path d="M477 387.1L463 352.8V427.7L477 441.7V387.1Z" fill="#1F497D"/>
<path d="M449 311.5L436 271.6V398.889L449 413V311.5Z" fill="#1F497D"/>
<path d="M420 207.9L410 165.2V373.1L420 382.2V207.9Z" fill="#1F497D"/>
<circle cx="360.5" cy="360.5" r="297.052" stroke="white" stroke-width="5.768"/>
<rect x="110.5" y="554.5" width="500" height="177" fill="#1F497D" stroke="white" stroke-width="7"/>
<path d="M252.684 655.484V689H237.408V596.574H265.445C276.059 596.574 284.287 599.045 290.131 603.986C295.975 608.928 298.896 615.889 298.896 624.869C298.896 633.85 295.846 641.197 289.744 646.912C283.643 652.627 275.393 655.484 264.994 655.484H252.684ZM252.684 609.207V642.98H262.609C269.184 642.98 274.189 641.455 277.627 638.404C281.064 635.354 282.783 631.057 282.783 625.514C282.783 614.643 276.467 609.207 263.834 609.207H252.684Z" fill="white"/>
<path d="M387.432 685.133C380.471 688.742 371.812 690.547 361.457 690.547C348.051 690.547 337.309 686.314 329.23 677.85C321.152 669.385 317.113 658.277 317.113 644.527C317.113 629.746 321.646 617.801 330.713 608.691C339.822 599.582 351.316 595.027 365.195 595.027C374.133 595.027 381.545 596.295 387.432 598.83V614.041C381.201 610.346 374.326 608.498 366.807 608.498C356.795 608.498 348.674 611.699 342.443 618.102C336.256 624.504 333.162 633.055 333.162 643.754C333.162 653.938 336.062 662.059 341.863 668.117C347.664 674.133 355.291 677.141 364.744 677.141C373.467 677.141 381.029 675.078 387.432 670.953V685.133Z" fill="white"/>
<path d="M484.895 689H464.914L432.752 646.719C431.549 645.129 430.818 644.055 430.561 643.496H430.303V689H414.963V596.574H430.303V640.016H430.561C431.076 639.07 431.807 638.018 432.752 636.857L463.754 596.574H482.123L445.836 640.918L484.895 689Z" fill="white"/>
<path d="M357 337L357 342L176.5 556.5L166.385 548.235L357 337Z" fill="#1F497D"/>
<path d="M363 337L363 342L543.5 556.5L553.615 548.235L363 337Z" fill="#1F497D"/>
<path d="M355.25 390.25L356.417 354.75L358.583 354.821L358.586 354.914L360 354.868L361.414 354.914L361.417 354.821L363.583 354.75L364.75 390.25L360 390.406L355.25 390.25ZM358.5 337H361.5V337.049L360 337.099L358.5 337.049V337ZM360.919 425.914L365.917 425.75L367.083 461.25L362.086 461.414L363.253 496.914L368.25 496.75L369.417 532.25L364.419 532.414L364.997 550H355.003L355.581 532.414L350.583 532.25L351.75 496.75L356.747 496.914L357.914 461.414L352.917 461.25L354.083 425.75L359.081 425.914L360 397.939L360.919 425.914Z" stroke="#1F497D" stroke-width="10" stroke-dasharray="31 31"/>
</svg>
