<svg width="156" height="46" viewBox="0 0 156 46" fill="none" xmlns="http://www.w3.org/2000/svg">
<g filter="url(#filter0_d_1_328)">
<mask id="path-1-inside-1_1_328" fill="white">
<path d="M43.122 23C43.4578 23 43.7309 23.2724 43.7212 23.608C43.5853 28.3363 41.8663 32.8868 38.8338 36.5162C35.6715 40.3008 31.2836 42.8409 26.4431 43.6889C21.6026 44.5369 16.62 43.6385 12.3731 41.1519C8.12621 38.6653 4.88739 34.75 3.22721 30.0958C1.56703 25.4416 1.592 20.347 3.29772 15.7095C5.00344 11.072 8.28048 7.18912 12.5516 4.7448C16.8227 2.30049 21.8138 1.45158 26.6457 2.34763C31.2796 3.20694 35.4819 5.61818 38.5749 9.17997C38.7947 9.43301 38.7573 9.8158 38.4993 10.0298C38.2391 10.2457 37.8535 10.2077 37.6312 9.95288C34.7211 6.61647 30.7751 4.35778 26.4254 3.55116C21.875 2.70733 17.1748 3.50677 13.1526 5.80864C9.1304 8.11051 6.04433 11.7671 4.43802 16.1344C2.8317 20.5016 2.80818 25.2993 4.37162 29.6823C5.93505 34.0653 8.98512 37.7524 12.9845 40.0941C16.984 42.4358 21.6762 43.2819 26.2346 42.4832C30.793 41.6846 34.9252 39.2926 37.9032 35.7285C40.7514 32.3197 42.3692 28.048 42.5048 23.608C42.515 23.2724 42.7863 23 43.122 23Z"/>
</mask>
<path d="M43.122 23C43.4578 23 43.7309 23.2724 43.7212 23.608C43.5853 28.3363 41.8663 32.8868 38.8338 36.5162C35.6715 40.3008 31.2836 42.8409 26.4431 43.6889C21.6026 44.5369 16.62 43.6385 12.3731 41.1519C8.12621 38.6653 4.88739 34.75 3.22721 30.0958C1.56703 25.4416 1.592 20.347 3.29772 15.7095C5.00344 11.072 8.28048 7.18912 12.5516 4.7448C16.8227 2.30049 21.8138 1.45158 26.6457 2.34763C31.2796 3.20694 35.4819 5.61818 38.5749 9.17997C38.7947 9.43301 38.7573 9.8158 38.4993 10.0298C38.2391 10.2457 37.8535 10.2077 37.6312 9.95288C34.7211 6.61647 30.7751 4.35778 26.4254 3.55116C21.875 2.70733 17.1748 3.50677 13.1526 5.80864C9.1304 8.11051 6.04433 11.7671 4.43802 16.1344C2.8317 20.5016 2.80818 25.2993 4.37162 29.6823C5.93505 34.0653 8.98512 37.7524 12.9845 40.0941C16.984 42.4358 21.6762 43.2819 26.2346 42.4832C30.793 41.6846 34.9252 39.2926 37.9032 35.7285C40.7514 32.3197 42.3692 28.048 42.5048 23.608C42.515 23.2724 42.7863 23 43.122 23Z" stroke="#2755AD" stroke-width="2.46263" mask="url(#path-1-inside-1_1_328)"/>
<path d="M12.52 22.5643C12.52 22.2243 12.2443 21.9487 11.9043 21.9487C11.5643 21.9487 11.2886 22.2243 11.2886 22.5643H12.52ZM11.2886 22.5643L11.2886 40.3H12.52L12.52 22.5643H11.2886Z" fill="#2755AD"/>
<path d="M33.9495 40.188C34.2206 40.3932 34.6053 40.3388 34.8089 40.0664C35.0124 39.794 34.9576 39.4068 34.6865 39.2016L33.9495 40.188ZM11.276 23.0265L33.9495 40.188L34.6865 39.2016L12.013 22.0401L11.276 23.0265Z" fill="#2755AD"/>
<path d="M33.8411 23C33.8411 29.1071 28.9232 34.051 22.8651 34.051C16.807 34.051 11.8891 29.1071 11.8891 23C11.8891 16.893 16.807 11.949 22.8651 11.949C28.9232 11.949 33.8411 16.893 33.8411 23Z" fill="white" stroke="#2755AD" stroke-width="1.23132"/>
</g>
<path d="M58.3983 31.133C57.3049 31.133 56.3445 31.0296 55.517 30.8227C54.7044 30.6011 54.0173 30.2095 53.4558 29.648C52.9091 29.0718 52.4954 28.2369 52.2147 27.1435C51.9487 26.0501 51.8157 24.6242 51.8157 22.8659C51.8157 21.0928 51.9561 19.6596 52.2368 18.5662C52.5176 17.458 52.9313 16.6158 53.478 16.0395C54.0395 15.4485 54.7265 15.0421 55.5392 14.8205C56.3667 14.5989 57.3197 14.488 58.3983 14.488C59.5065 14.488 60.4743 14.5989 61.3018 14.8205C62.1292 15.0421 62.8163 15.4485 63.363 16.0395C63.9097 16.6158 64.316 17.458 64.582 18.5662C64.8627 19.6596 65.0031 21.0928 65.0031 22.8659C65.0031 24.6242 64.8627 26.0501 64.582 27.1435C64.316 28.2369 63.9023 29.0718 63.3408 29.648C62.7941 30.2095 62.1071 30.6011 61.2796 30.8227C60.4669 31.0296 59.5065 31.133 58.3983 31.133ZM58.3983 28.6728C59.1223 28.6728 59.7281 28.5989 60.2157 28.4512C60.7181 28.2886 61.1171 28.0079 61.4126 27.609C61.7081 27.1952 61.9224 26.6116 62.0553 25.858C62.1883 25.0897 62.2548 24.0923 62.2548 22.8659C62.2548 21.5657 62.1809 20.5313 62.0332 19.763C61.9002 18.9799 61.6859 18.3889 61.3904 17.9899C61.0949 17.5762 60.7033 17.3028 60.2157 17.1699C59.7281 17.0221 59.1223 16.9482 58.3983 16.9482C57.7186 16.9482 57.135 17.0221 56.6474 17.1699C56.1598 17.3028 55.7608 17.5762 55.4506 17.9899C55.155 18.3889 54.9334 18.9799 54.7856 19.763C54.6379 20.5313 54.564 21.5657 54.564 22.8659C54.564 24.0923 54.6231 25.0897 54.7413 25.858C54.8743 26.6116 55.0885 27.1952 55.3841 27.609C55.6796 28.0079 56.0711 28.2886 56.5587 28.4512C57.0611 28.5989 57.6743 28.6728 58.3983 28.6728ZM74.3311 31.133C73.3707 31.133 72.5211 31.0222 71.7823 30.8005C71.0583 30.5789 70.4451 30.1726 69.9427 29.5815C69.4551 28.9905 69.0857 28.1483 68.8345 27.0549C68.5833 25.9615 68.4577 24.5282 68.4577 22.7551C68.4577 21.0854 68.5833 19.7113 68.8345 18.6327C69.1005 17.554 69.4846 16.7118 69.987 16.106C70.5042 15.5002 71.1321 15.0791 71.8709 14.8427C72.6097 14.6062 73.4519 14.488 74.3976 14.488C75.0477 14.488 75.6757 14.525 76.2815 14.5989C76.9021 14.6727 77.471 14.7614 77.9881 14.8648C78.52 14.9683 78.9781 15.0791 79.3623 15.1973V17.3028C79.1111 17.2437 78.7565 17.192 78.2984 17.1477C77.8404 17.0886 77.3232 17.0443 76.7469 17.0147C76.1707 16.9704 75.5723 16.9482 74.9517 16.9482C74.272 16.9482 73.6884 17.0295 73.2008 17.192C72.7279 17.3398 72.3438 17.6205 72.0482 18.0342C71.7527 18.448 71.5385 19.039 71.4055 19.8073C71.2725 20.5757 71.206 21.573 71.206 22.7994C71.206 24.011 71.2651 25.001 71.3833 25.7694C71.5163 26.5377 71.7158 27.1361 71.9817 27.5646C72.2625 27.9783 72.6393 28.2665 73.1121 28.429C73.5997 28.5915 74.2055 28.6728 74.9295 28.6728C76.0377 28.6728 76.9464 28.6506 77.6557 28.6063C78.3649 28.5472 78.9338 28.4881 79.3623 28.429V30.5346C78.9485 30.6528 78.4757 30.7562 77.9438 30.8449C77.4266 30.9335 76.8652 31 76.2593 31.0443C75.6683 31.1034 75.0256 31.133 74.3311 31.133ZM83.0534 31V14.6432H89.7025C90.3083 14.6432 90.8772 14.7171 91.4091 14.8648C91.9558 14.9978 92.436 15.249 92.8498 15.6184C93.2783 15.9878 93.6107 16.5049 93.8471 17.1699C94.0983 17.82 94.2239 18.6696 94.2239 19.7187C94.2239 20.5313 94.1426 21.211 93.9801 21.7577C93.8176 22.2897 93.6033 22.7256 93.3374 23.0654C93.0714 23.4052 92.7685 23.6712 92.4286 23.8633C92.1036 24.0406 91.7785 24.1884 91.4534 24.3066L94.6007 31H91.8302L88.9933 24.7055C88.7864 24.7055 88.5426 24.7055 88.2619 24.7055C87.9959 24.7055 87.7152 24.7055 87.4196 24.7055C87.1241 24.6907 86.836 24.6833 86.5553 24.6833C86.2745 24.6686 86.0159 24.6612 85.7795 24.6612V31H83.0534ZM85.7795 22.5113H89.2371C89.5621 22.5113 89.8577 22.4744 90.1236 22.4005C90.3896 22.3118 90.626 22.1641 90.8329 21.9572C91.0397 21.7503 91.1949 21.4696 91.2983 21.115C91.4165 20.7604 91.4756 20.3023 91.4756 19.7408C91.4756 19.1941 91.4165 18.7509 91.2983 18.411C91.1949 18.0564 91.0397 17.7904 90.8329 17.6131C90.626 17.421 90.3822 17.2881 90.1015 17.2142C89.8355 17.1403 89.5474 17.1034 89.2371 17.1034H85.7795V22.5113ZM98.0288 31V14.6432H104.279C105.816 14.6432 106.953 15.0052 107.692 15.7292C108.431 16.4532 108.8 17.5097 108.8 18.8986C108.8 19.5488 108.697 20.125 108.49 20.6274C108.298 21.115 108.032 21.5213 107.692 21.8464C107.352 22.1567 106.953 22.3709 106.495 22.4891C106.835 22.5778 107.168 22.7182 107.493 22.9102C107.833 23.0876 108.143 23.3387 108.424 23.6638C108.704 23.9889 108.926 24.3878 109.088 24.8607C109.251 25.3187 109.332 25.858 109.332 26.4786C109.332 27.6016 109.14 28.4955 108.756 29.1604C108.387 29.8105 107.84 30.2834 107.116 30.5789C106.407 30.8596 105.55 31 104.545 31H98.0288ZM100.755 28.5398H104.456C104.914 28.5398 105.313 28.4586 105.653 28.296C105.993 28.1335 106.252 27.8749 106.429 27.5203C106.621 27.1509 106.717 26.6485 106.717 26.0132C106.717 25.5108 106.621 25.0897 106.429 24.7498C106.237 24.41 105.971 24.1514 105.631 23.9741C105.291 23.782 104.9 23.686 104.456 23.686H100.755V28.5398ZM100.755 21.5583H104.323C104.87 21.5583 105.313 21.3588 105.653 20.9598C105.993 20.5461 106.17 20.0068 106.185 19.3419C106.2 18.4997 106.015 17.916 105.631 17.591C105.262 17.2659 104.804 17.1034 104.257 17.1034H100.755V21.5583ZM111.963 31L117.282 14.6432H120.74L126.059 31H123.2L121.937 27.1214H116.019L114.778 31H111.963ZM116.662 24.6612H121.272L118.967 16.9925L116.662 24.6612ZM134.132 31.133C133.733 31.133 133.304 31.1182 132.846 31.0887C132.403 31.0739 131.945 31.0443 131.472 31C131.014 30.9409 130.578 30.8892 130.164 30.8449C129.751 30.7858 129.381 30.7193 129.056 30.6454V28.4955C129.47 28.5251 129.95 28.5546 130.497 28.5842C131.058 28.6137 131.642 28.6359 132.248 28.6506C132.854 28.6654 133.437 28.6728 133.999 28.6728C134.59 28.6728 135.114 28.6211 135.572 28.5177C136.03 28.3995 136.385 28.2 136.636 27.9192C136.887 27.6385 137.013 27.2396 137.013 26.7224V25.9467C137.013 25.3704 136.85 24.9271 136.525 24.6169C136.2 24.3066 135.72 24.1514 135.085 24.1514H133.555C132.063 24.1514 130.91 23.8263 130.098 23.1762C129.3 22.5261 128.901 21.4105 128.901 19.8295V18.9873C128.901 17.4063 129.337 16.2685 130.209 15.5741C131.095 14.8648 132.359 14.5102 133.999 14.5102C134.56 14.5102 135.136 14.5398 135.727 14.5989C136.333 14.6432 136.909 14.7023 137.456 14.7762C138.003 14.85 138.468 14.9313 138.852 15.02V17.1699C138.202 17.1255 137.456 17.0812 136.614 17.0369C135.787 16.9925 135.018 16.9704 134.309 16.9704C133.747 16.9704 133.252 17.0295 132.824 17.1477C132.395 17.2659 132.07 17.4801 131.849 17.7904C131.627 18.086 131.516 18.5292 131.516 19.1203V19.6522C131.516 20.3466 131.701 20.8342 132.07 21.115C132.455 21.3957 133.001 21.5361 133.711 21.5361H135.417C136.378 21.5361 137.168 21.7134 137.789 22.068C138.409 22.4226 138.867 22.9102 139.163 23.5308C139.473 24.1366 139.628 24.8311 139.628 25.6142V26.6559C139.628 27.8675 139.392 28.7984 138.919 29.4485C138.446 30.0987 137.796 30.542 136.969 30.7784C136.141 31.0148 135.195 31.133 134.132 31.133ZM147.286 31.1108C146.932 31.1108 146.533 31.0739 146.089 31C145.661 30.9409 145.247 30.8005 144.848 30.5789C144.449 30.3425 144.124 29.9952 143.873 29.5372C143.622 29.0791 143.496 28.4512 143.496 27.6533V18.2115C143.496 17.5171 143.6 16.9408 143.806 16.4828C144.013 16.01 144.287 15.6406 144.626 15.3746C144.981 15.1086 145.365 14.9239 145.779 14.8205C146.207 14.7023 146.629 14.6432 147.042 14.6432C148.077 14.6432 149.008 14.658 149.835 14.6875C150.662 14.7171 151.416 14.7466 152.096 14.7762C152.79 14.8057 153.433 14.8427 154.024 14.887V17.1699H147.84C147.338 17.1699 146.939 17.2954 146.643 17.5466C146.363 17.7978 146.222 18.1894 146.222 18.7213V21.6248L153.027 21.7799V23.9298L146.222 24.0849V26.8997C146.222 27.343 146.296 27.6828 146.444 27.9192C146.606 28.1557 146.806 28.3182 147.042 28.4068C147.294 28.4955 147.552 28.5398 147.818 28.5398H154.024V30.8227C153.374 30.8818 152.665 30.9335 151.896 30.9778C151.128 31.0074 150.345 31.0296 149.547 31.0443C148.764 31.0739 148.01 31.096 147.286 31.1108Z" fill="#080808"/>
<defs>
<filter id="filter0_d_1_328" x="0.768683" y="0.768683" width="44.1841" height="44.4626" filterUnits="userSpaceOnUse" color-interpolation-filters="sRGB">
<feFlood flood-opacity="0" result="BackgroundImageFix"/>
<feColorMatrix in="SourceAlpha" type="matrix" values="0 0 0 0 0 0 0 0 0 0 0 0 0 0 0 0 0 0 127 0" result="hardAlpha"/>
<feOffset/>
<feGaussianBlur stdDeviation="0.615658"/>
<feComposite in2="hardAlpha" operator="out"/>
<feColorMatrix type="matrix" values="0 0 0 0 0.152941 0 0 0 0 0.333333 0 0 0 0 0.678431 0 0 0 0.25 0"/>
<feBlend mode="normal" in2="BackgroundImageFix" result="effect1_dropShadow_1_328"/>
<feBlend mode="normal" in="SourceGraphic" in2="effect1_dropShadow_1_328" result="shape"/>
</filter>
</defs>
</svg>
