<svg width="48" height="48" viewBox="0 0 48 48" fill="none" xmlns="http://www.w3.org/2000/svg">
<path d="M4 6L4.53 6.176C7.17 7.056 8.49 7.496 9.244 8.544C10 9.592 10 10.984 10 13.766V19C10 24.656 10 27.486 11.758 29.242C13.514 31 16.344 31 22 31H38" stroke="#2755AD" stroke-width="2" stroke-linecap="round"/>
<path d="M10 12H32.9C37.01 12 39.066 12 39.954 13.348C40.844 14.698 40.034 16.586 38.414 20.364L37.558 22.364C36.802 24.128 36.424 25.008 35.674 25.504C34.922 26 33.962 26 32.044 26H10M15 36C15.7956 36 16.5587 36.3161 17.1213 36.8787C17.6839 37.4413 18 38.2044 18 39C18 39.7956 17.6839 40.5587 17.1213 41.1213C16.5587 41.6839 15.7956 42 15 42C14.2044 42 13.4413 41.6839 12.8787 41.1213C12.3161 40.5587 12 39.7956 12 39C12 38.2044 12.3161 37.4413 12.8787 36.8787C13.4413 36.3161 14.2044 36 15 36ZM33 36C33.7956 36 34.5587 36.3161 35.1213 36.8787C35.6839 37.4413 36 38.2044 36 39C36 39.7956 35.6839 40.5587 35.1213 41.1213C34.5587 41.6839 33.7956 42 33 42C32.2044 42 31.4413 41.6839 30.8787 41.1213C30.3161 40.5587 30 39.7956 30 39C30 38.2044 30.3161 37.4413 30.8787 36.8787C31.4413 36.3161 32.2044 36 33 36Z" stroke="#2755AD" stroke-width="2"/>
</svg>
